<svg width="1654" height="1653" viewBox="0 0 1654 1653" fill="none" xmlns="http://www.w3.org/2000/svg">
<mask id="mask0_1205_4536" style="mask-type:luminance" maskUnits="userSpaceOnUse" x="249" y="247" width="1155" height="1156">
<path d="M1403.93 825.201C1403.93 506.412 1145.5 247.982 826.708 247.982C507.922 247.982 249.489 506.412 249.489 825.201C249.489 1143.99 507.922 1402.42 826.708 1402.42C1145.5 1402.42 1403.93 1143.99 1403.93 825.201Z" fill="white"/>
</mask>
<g mask="url(#mask0_1205_4536)">
<path d="M1403.93 247.982H249.489V1402.42H1403.93V247.982Z" fill="url(#paint0_linear_1205_4536)"/>
</g>
<mask id="mask1_1205_4536" style="mask-type:luminance" maskUnits="userSpaceOnUse" x="146" y="144" width="1364" height="1362">
<path d="M386.919 1347.37C491.804 1435.8 623.698 1493.2 768.457 1505.43V1423.06C646.305 1411.3 534.847 1362.96 445.167 1289.12L386.919 1347.37ZM146.501 883.451C158.139 1020.14 210.811 1153.99 304.522 1265.01L362.769 1206.76C284.707 1112.07 240.08 999.077 228.875 883.451H146.501ZM768.457 144.996C631.768 156.633 497.912 209.306 386.901 303.016L445.152 361.263C539.836 283.202 652.834 238.57 768.457 227.369V144.996ZM1266.5 303.034C1161.61 214.606 1029.72 157.203 884.96 144.968V227.344C1007.11 239.098 1118.57 287.444 1208.25 361.281L1266.5 303.034ZM1499.18 942.923C1522.9 807.807 1506.23 664.931 1444.04 533.641L1372.83 575.047C1424.07 686.551 1438.3 807.207 1419.54 921.848L1499.18 942.923ZM884.96 1505.41C1021.65 1493.77 1155.5 1441.1 1266.51 1347.39L1208.27 1289.14C1113.58 1367.2 1000.58 1411.83 884.961 1423.03V1505.41H884.96Z" fill="white"/>
</mask>
<g mask="url(#mask1_1205_4536)">
<path d="M1522.9 144.968H146.501V1505.43H1522.9V144.968Z" fill="url(#paint1_linear_1205_4536)"/>
</g>
<mask id="mask2_1205_4536" style="mask-type:luminance" maskUnits="userSpaceOnUse" x="0" y="0" width="1654" height="1653">
<path d="M775.415 0C524.387 15.835 285.02 145.759 137.765 368.204L232.665 422.994C359.39 235.408 562.202 125.079 775.412 109.602L775.415 0ZM16.3457 661.168C-33.3283 907.739 30.2167 1172.58 206.971 1372.39L284.455 1294.9C136.062 1123.95 81.9807 899.49 122.216 689.538L16.3457 661.168ZM458.53 1565.49C683.84 1677.29 956.106 1684.46 1194.85 1565.44L1140.06 1470.54C936.519 1569.63 705.717 1563.78 513.333 1470.58L458.53 1565.49ZM1446.48 1372.43C1612.79 1183.74 1690.18 922.605 1637.01 661.193L1531.16 689.553C1574.2 911.803 1508.8 1133.23 1368.98 1294.94L1446.48 1372.43ZM1515.71 368.176C1376.48 158.704 1144.28 16.36 878.008 0.0590057V109.643C1103.82 125.596 1300.78 246.068 1420.79 422.978L1515.71 368.176Z" fill="white"/>
</mask>
<g mask="url(#mask2_1205_4536)">
<path d="M1690.18 0H-33.3273V1684.46H1690.18V0Z" fill="url(#paint2_linear_1205_4536)"/>
</g>
<path d="M1094.62 554.533H1195.16V1095.87H1094.62V554.533ZM833.236 891.709L731.157 655.066L629.849 891.709H833.236ZM866.488 970.588H595.821L542.463 1095.87H438.833L682.435 554.533H781.421L1025.8 1095.87H920.624L866.488 970.588Z" fill="black"/>
<defs>
<linearGradient id="paint0_linear_1205_4536" x1="-34.0764" y1="1243.03" x2="1243.15" y2="623.061" gradientUnits="userSpaceOnUse">
<stop/>
<stop offset="1" stop-color="#006AFF"/>
</linearGradient>
<linearGradient id="paint1_linear_1205_4536" x1="136.249" y1="1372.16" x2="1337.83" y2="431.196" gradientUnits="userSpaceOnUse">
<stop/>
<stop offset="1" stop-color="#006AFF"/>
</linearGradient>
<linearGradient id="paint2_linear_1205_4536" x1="-349.752" y1="1424.31" x2="1937.83" y2="294.133" gradientUnits="userSpaceOnUse">
<stop/>
<stop offset="1" stop-color="#006AFF"/>
</linearGradient>
</defs>
</svg>
